<svg fill="#000000" xmlns="http://www.w3.org/2000/svg"  viewBox="0 0 50 50" width="50px" height="50px"><path d="M 13 4 C 8.0414839 4 4 8.0414839 4 13 L 4 37 C 4 41.958516 8.0414839 46 13 46 L 37 46 C 41.958516 46 46 41.958516 46 37 L 46 13 C 46 8.0414839 41.958516 4 37 4 L 13 4 z M 13 6 L 37 6 C 40.877484 6 44 9.1225161 44 13 L 44 32.261719 C 42.470886 31.459963 40.694887 31 38.800781 31 L 28 31 L 28 33 L 38.800781 33 C 40.787955 33 42.593922 33.608713 44 34.597656 L 44 36.400391 C 42.592776 37.389208 40.788665 38 38.800781 38 L 11.199219 38 C 9.2113351 38 7.4072239 37.389208 6 36.400391 L 6 34.599609 C 7.4062835 33.610281 9.2114626 33 11.199219 33 L 22 33 L 22 31 L 11.199219 31 C 9.3058138 31 7.5286405 31.456709 6 32.257812 L 6 13 C 6 9.1225161 9.1225161 6 13 6 z M 15.65625 18.265625 C 14.543966 18.221955 13.3929 18.314346 12.263672 18.576172 A 1.0001 1.0001 0 0 0 12.195312 20.505859 C 12.737526 20.672987 13.304844 21.377256 13.890625 22.402344 C 14.476406 23.427431 15.01778 24.672135 16.064453 25.544922 C 17.981641 27.141143 20.725446 27.308021 23.140625 26.886719 A 1.0001 1.0001 0 0 0 23.144531 26.886719 C 23.354787 27.201911 23.535705 27.625107 23.654297 28.070312 C 23.841297 28.773313 23.937812 29.531016 24.007812 30.291016 C 24.126812 31.814016 24.112953 33.400922 24.001953 34.919922 L 24.007812 34.919922 C 24.007233 34.946317 24.002477 34.971618 24.001953 34.998047 L 24.001953 35 C 24.001849 35.005266 24.002055 35.010358 24.001953 35.015625 L 24.333984 35 L 25.669922 35 L 25.996094 35.015625 C 25.996091 35.010356 25.996099 35.005267 25.996094 35 L 26 35 L 25.996094 34.996094 C 25.996067 34.971053 25.994214 34.94689 25.994141 34.921875 L 25.998047 34.921875 C 25.992744 34.865588 25.993298 34.806505 25.988281 34.75 C 25.981931 33.877029 25.949209 33.01561 25.878906 32.158203 C 25.877552 31.648055 25.872381 31.136451 25.900391 30.634766 C 25.950391 29.928766 26.022641 29.219594 26.181641 28.558594 C 26.244552 28.301771 26.331134 28.052069 26.429688 27.820312 C 27.06726 28.411678 27.970256 28.78802 29.236328 29.029297 C 30.599773 29.289129 32.313245 29.256732 34.007812 28.447266 C 37.588614 26.736778 38.464844 22.025391 38.464844 22.025391 A 1.0001 1.0001 0 0 0 37.480469 20.804688 A 1.0001 1.0001 0 0 0 36.865234 21.023438 C 35.888136 21.802076 35.098904 22.025266 34.21875 22.087891 C 33.338596 22.150511 32.357 21.999541 31.208984 21.947266 C 29.940958 21.889516 28.637671 22.196271 27.628906 23.046875 C 26.722347 23.811298 26.134232 25.005814 26.023438 26.490234 C 25.579107 26.890097 25.330303 27.385475 25.126953 27.863281 C 25.102038 27.785002 25.087571 27.70722 25.060547 27.628906 C 24.903547 27.216906 24.738469 26.803438 24.480469 26.398438 C 24.348945 26.17869 24.175867 25.964342 23.966797 25.767578 C 24.004982 24.146109 23.755212 22.84649 23.173828 21.808594 C 22.571344 20.733027 21.641484 19.999041 20.59375 19.466797 C 19.52363 18.92318 18.192412 18.527537 16.753906 18.353516 C 16.39428 18.31001 16.027011 18.280182 15.65625 18.265625 z M 16.142578 20.349609 C 16.271252 20.346484 16.399384 20.349822 16.525391 20.365234 C 17.757635 20.515963 18.88162 20.840617 19.6875 21.25 C 20.515766 21.670756 21.055969 22.121473 21.427734 22.785156 C 21.687042 23.248078 21.73355 24.113762 21.804688 24.933594 C 20.074808 25.059894 18.348795 24.844594 17.34375 24.007812 C 16.83163 23.580161 16.26059 22.518988 15.626953 21.410156 C 15.439565 21.082237 15.19074 20.760856 14.966797 20.431641 C 15.361077 20.429616 15.756557 20.358985 16.142578 20.349609 z M 35.621094 23.808594 C 35.065147 24.90821 34.253251 26.112962 33.144531 26.642578 C 31.904098 27.235112 30.644633 27.261371 29.611328 27.064453 C 28.779077 26.90585 28.33554 26.600231 28.091797 26.457031 C 28.198354 25.569406 28.480575 24.946635 28.919922 24.576172 C 29.454658 24.125276 30.233213 23.905057 31.117188 23.945312 C 32.12117 23.991032 33.177029 24.166157 34.359375 24.082031 C 34.763979 24.053241 35.195237 23.922794 35.621094 23.808594 z M 6.2578125 38.867188 C 7.7279525 39.58699 9.4099818 40 11.199219 40 L 38.800781 40 C 40.590018 40 42.272047 39.58699 43.742188 38.867188 C 42.927952 41.831337 40.229417 44 37 44 L 13 44 C 9.770583 44 7.0720481 41.831337 6.2578125 38.867188 z"/></svg>